<svg width="1616" height="274" viewBox="0 0 1616 274" fill="none" xmlns="http://www.w3.org/2000/svg">
<path d="M323.513 121.185C323.513 129.716 321.539 137.484 317.592 144.487C313.645 151.363 307.787 156.838 300.02 160.913C292.38 164.988 283.085 167.025 272.134 167.025H255.326V210H212.924V74.772H272.134C288.687 74.772 301.357 78.974 310.143 87.378C319.056 95.782 323.513 107.051 323.513 121.185ZM267.359 133.6C276.145 133.6 280.538 129.462 280.538 121.185C280.538 112.908 276.145 108.77 267.359 108.77H255.326V133.6H267.359ZM408.587 211.337C395.854 211.337 384.139 208.345 373.443 202.36C362.875 196.375 354.471 188.099 348.231 177.53C341.992 166.961 338.872 155.056 338.872 141.813C338.872 128.57 341.992 116.665 348.231 106.096C354.471 95.5273 362.875 87.3143 373.443 81.457C384.139 75.4723 395.854 72.48 408.587 72.48C421.321 72.48 432.972 75.4723 443.54 81.457C454.109 87.3143 462.449 95.5273 468.561 106.096C474.801 116.665 477.92 128.57 477.92 141.813C477.92 155.056 474.801 166.961 468.561 177.53C462.449 188.099 454.045 196.375 443.349 202.36C432.781 208.345 421.193 211.337 408.587 211.337ZM408.587 171.8C416.991 171.8 423.485 169.126 428.069 163.778C432.653 158.303 434.945 150.981 434.945 141.813C434.945 132.518 432.653 125.196 428.069 119.848C423.485 114.373 416.991 111.635 408.587 111.635C400.056 111.635 393.498 114.373 388.914 119.848C384.33 125.196 382.038 132.518 382.038 141.813C382.038 150.981 384.33 158.303 388.914 163.778C393.498 169.126 400.056 171.8 408.587 171.8ZM693.767 74.772L662.825 210H610.109L594.447 133.218L578.785 210H526.069L495.127 74.772H540.776L553 159.958L571.336 74.772H617.558L635.894 159.958L648.118 74.772H693.767ZM757.104 108.579V125.196H799.124V157.093H757.104V176.193H804.854V210H714.702V74.772H804.854V108.579H757.104ZM894.56 210L869.157 161.486H868.966V210H826.564V74.772H889.594C900.545 74.772 909.904 76.7457 917.671 80.693C925.438 84.513 931.232 89.7973 935.052 96.546C938.999 103.167 940.973 110.68 940.973 119.084C940.973 128.125 938.426 136.147 933.333 143.15C928.367 150.153 921.173 155.183 911.75 158.239L941.164 210H894.56ZM868.966 133.218H885.774C889.849 133.218 892.905 132.327 894.942 130.544C896.979 128.634 897.998 125.705 897.998 121.758C897.998 118.193 896.916 115.391 894.751 113.354C892.714 111.317 889.721 110.298 885.774 110.298H868.966V133.218ZM1070.84 121.185C1070.84 129.716 1068.86 137.484 1064.92 144.487C1060.97 151.363 1055.11 156.838 1047.34 160.913C1039.7 164.988 1030.41 167.025 1019.46 167.025H1002.65V210H960.249V74.772H1019.46C1036.01 74.772 1048.68 78.974 1057.47 87.378C1066.38 95.782 1070.84 107.051 1070.84 121.185ZM1014.68 133.6C1023.47 133.6 1027.86 129.462 1027.86 121.185C1027.86 112.908 1023.47 108.77 1014.68 108.77H1002.65V133.6H1014.68ZM1132.42 74.772V210H1090.02V74.772H1132.42ZM1153.48 142.195C1153.48 128.825 1156.15 116.919 1161.5 106.478C1166.98 96.0367 1174.74 87.951 1184.8 82.221C1194.86 76.3637 1206.71 73.435 1220.33 73.435C1232.04 73.435 1242.49 75.6633 1251.65 80.12C1260.95 84.4493 1268.46 90.625 1274.19 98.647C1280.05 106.669 1283.93 116.028 1285.84 126.724H1241.15C1239.11 122.267 1236.18 118.829 1232.36 116.41C1228.67 113.863 1224.4 112.59 1219.57 112.59C1212.44 112.59 1206.77 115.264 1202.57 120.612C1198.49 125.96 1196.45 133.154 1196.45 142.195C1196.45 151.236 1198.49 158.43 1202.57 163.778C1206.77 169.126 1212.44 171.8 1219.57 171.8C1224.4 171.8 1228.67 170.59 1232.36 168.171C1236.18 165.624 1239.11 162.123 1241.15 157.666H1285.84C1283.93 168.362 1280.05 177.721 1274.19 185.743C1268.46 193.765 1260.95 200.004 1251.65 204.461C1242.49 208.79 1232.04 210.955 1220.33 210.955C1206.71 210.955 1194.86 208.09 1184.8 202.36C1174.74 196.503 1166.98 188.353 1161.5 177.912C1156.15 167.471 1153.48 155.565 1153.48 142.195ZM1388.59 210L1349.24 151.363V210H1306.84V74.772H1349.24V131.69L1388.01 74.772H1435.96L1389.35 139.521L1439.01 210H1388.59ZM1509.66 211.337C1493.49 211.337 1480.12 207.581 1469.55 200.068C1459.11 192.428 1453.44 181.286 1452.55 166.643H1497.63C1498.26 174.41 1501.7 178.294 1507.94 178.294C1510.23 178.294 1512.14 177.785 1513.67 176.766C1515.33 175.62 1516.15 173.901 1516.15 171.609C1516.15 168.426 1514.43 165.879 1511 163.969C1507.56 161.932 1502.21 159.64 1494.95 157.093C1486.29 154.037 1479.1 151.045 1473.37 148.116C1467.77 145.187 1462.93 140.922 1458.85 135.319C1454.78 129.716 1452.8 122.522 1452.93 113.736C1452.93 104.95 1455.16 97.501 1459.62 91.389C1464.2 85.1497 1470.38 80.4383 1478.14 77.255C1486.04 74.0717 1494.89 72.48 1504.69 72.48C1521.25 72.48 1534.36 76.3 1544.04 83.94C1553.84 91.58 1559 102.34 1559.51 116.219H1513.86C1513.73 112.399 1512.78 109.661 1511 108.006C1509.21 106.351 1507.05 105.523 1504.5 105.523C1502.72 105.523 1501.25 106.16 1500.11 107.433C1498.96 108.579 1498.39 110.234 1498.39 112.399C1498.39 115.455 1500.05 118.002 1503.36 120.039C1506.79 121.949 1512.21 124.305 1519.59 127.106C1528.12 130.289 1535.13 133.345 1540.6 136.274C1546.2 139.203 1551.04 143.277 1555.12 148.498C1559.19 153.719 1561.23 160.276 1561.23 168.171C1561.23 176.448 1559.19 183.897 1555.12 190.518C1551.04 197.012 1545.12 202.105 1537.35 205.798C1529.59 209.491 1520.35 211.337 1509.66 211.337Z" fill="white"/>
<path d="M82.4168 66.7667C77.779 93.474 73.882 109.35 63.1894 119.221C52.4968 129.092 35.2985 132.689 6.36725 136.97C35.2985 141.252 52.4968 144.849 63.1894 154.749C73.882 164.62 77.779 180.496 82.4168 207.224C87.0545 180.496 90.9515 164.62 101.644 154.72C112.369 144.849 129.567 141.252 158.521 136.97C129.567 132.689 112.369 129.092 101.676 119.221C90.9515 109.35 87.0545 93.474 82.4168 66.7667Z" fill="#AAFF3F"/>
</svg>
